<svg width="702" height="86" viewBox="0 0 702 86" fill="none" xmlns="http://www.w3.org/2000/svg">
<g clip-path="url(#clip0_72_137)">
<path fill-rule="evenodd" clip-rule="evenodd" d="M50.5877 35H50.5699H29.0299L29.545 40H50.0752C49.7743 44.38 48.8639 53.6596 48.5299 57.8821L36.9987 61.1279V61.1377L36.9732 61.1499L25.4344 57.0898L24.6439 47.5H30.2999L30.7002 52.6575L36.9834 55H36.9987L43.2717 52.7502L43.9169 45H24.3915C24.2971 43.9975 23.0833 30.98 22.8717 30H51.0926C50.9345 31.65 50.7739 33.345 50.5877 35ZM14.5 20L18.5953 65.3699L36.9732 70L55.3996 65.2771L59.5 20H14.5Z" fill="#778472"/>
</g>
<g clip-path="url(#clip1_72_137)">
<path d="M216.179 20.049L212.02 65.0991L194 69.9511L175.979 65.0991L171.821 20.049H216.179ZM207.798 29.2092H193.983H179.924L180.597 34.6494H193.983H194.735L193.983 34.9624L181.086 40.3341L181.514 45.6518L193.983 45.6922L200.667 45.7134L200.239 52.8038L193.983 54.5651V54.5595L193.932 54.5738L187.891 53.0487L187.524 48.6473H187.504H181.9H181.881L182.614 57.1441L193.984 60.5063V60.5002L194.004 60.5063L205.313 57.2053L206.779 40.3341H193.984H193.952L193.984 40.3204L207.248 34.6494L207.798 29.2092Z" fill="#778472"/>
</g>
<g clip-path="url(#clip2_72_137)">
<g clip-path="url(#clip3_72_137)">
<path fill-rule="evenodd" clip-rule="evenodd" d="M326.098 20.0488C326.043 20.0569 326.047 20.124 326.051 20.1912C326.051 36.7604 326.051 53.327 326.051 69.8957C342.59 70.0065 359.333 69.9115 375.951 69.9432C375.951 53.3114 375.951 36.6805 375.951 20.0488C359.334 20.0488 342.716 20.0488 326.098 20.0488ZM351.38 64.1569C350.226 65.3209 348.404 66.0063 346.163 66.0063C342.486 66.0063 340.445 64.2153 339.143 61.7377C340.397 60.9369 341.678 60.1633 342.985 59.414C343.518 60.9044 345.317 62.58 347.348 61.5484C348.636 60.8942 348.487 58.9107 348.487 56.758C348.487 52.288 348.487 47.1313 348.487 43.0986C348.483 43.0314 348.479 42.9644 348.534 42.9563C350.068 42.9563 351.602 42.9563 353.135 42.9563C353.135 46.5488 353.135 50.6127 353.135 54.4337C353.135 58.5937 353.433 62.0887 351.38 64.1569ZM371.966 60.031C371.705 63.9259 368.525 65.9941 364.235 66.0063C360.03 66.0185 357.338 64.1496 355.697 61.2635C356.877 60.4513 358.214 59.797 359.444 59.0348C360.429 60.5739 362.133 62.0533 364.662 61.8328C366.237 61.6955 368.066 60.4114 367.033 58.4654C366.533 57.5221 365.323 57.0429 364.235 56.5685C360.783 55.0622 356.732 53.6807 357.12 48.2685C357.249 46.4604 358.082 45.1898 359.16 44.2845C360.264 43.3567 361.744 42.735 363.713 42.6721C367.29 42.5575 369.253 44.1486 370.591 46.3717C369.452 47.2399 368.197 47.9936 366.939 48.7429C366.526 47.4738 364.532 46.2372 362.859 46.9881C362.099 47.3292 361.415 48.3319 361.816 49.549C362.173 50.6345 363.631 51.2286 364.804 51.7311C368.354 53.2506 372.321 54.7356 371.966 60.031Z" fill="#778472"/>
</g>
</g>
<g clip-path="url(#clip4_72_137)">
<path d="M499.782 39.9584C498.694 38.7135 496.964 38.0909 494.592 38.0909H486.707L483.049 56.9131H487.149L488.121 51.9091H491.633C493.183 51.9091 494.458 51.7467 495.459 51.4205C496.46 51.0953 497.369 50.5494 498.188 49.7831C498.875 49.1516 499.431 48.4551 499.857 47.6933C500.282 46.9318 500.584 46.0916 500.763 45.1726C501.197 42.9413 500.869 41.2035 499.782 39.9584ZM496.525 44.8851C496.241 46.3418 495.695 47.3814 494.887 48.0043C494.077 48.6273 492.846 48.9388 491.193 48.9388H488.699L490.23 41.0611H493.039C494.597 41.0611 495.635 41.3485 496.154 41.9236C496.672 42.499 496.796 43.486 496.525 44.8851ZM515.991 43.1503L514.289 51.9091H510.156L511.775 43.5812C511.959 42.6337 511.891 41.9874 511.571 41.643C511.252 41.2983 510.571 41.1258 509.53 41.1258H506.279L504.184 51.9091H500.116L503.774 33.0869H507.842L506.87 38.0909H510.494C512.774 38.0909 514.346 38.4891 515.212 39.2841C516.078 40.0796 516.337 41.3685 515.991 43.1503ZM531.785 39.9584C530.697 38.7135 528.967 38.0909 526.595 38.0909H518.71L515.052 56.9131H519.152L520.125 51.9091H523.637C525.187 51.9091 526.461 51.7467 527.462 51.4205C528.463 51.0953 529.372 50.5494 530.191 49.7831C530.878 49.1516 531.434 48.4551 531.86 47.6933C532.285 46.9318 532.587 46.0916 532.766 45.1726C533.199 42.9413 532.872 41.2035 531.785 39.9584ZM528.528 44.8851C528.245 46.3418 527.699 47.3814 526.889 48.0043C526.08 48.6273 524.849 48.9388 523.196 48.9388H520.702L522.233 41.0611H525.042C526.6 41.0611 527.638 41.3485 528.157 41.9236C528.676 42.499 528.799 43.486 528.528 44.8851Z" fill="#778472"/>
</g>
<g clip-path="url(#clip5_72_137)">
<path d="M686.916 44.1547C686.787 44.1453 686.639 44.1391 686.489 44.1391C685.733 44.1391 685.009 44.2797 684.344 44.5359L684.384 44.5219C684.189 44.6 683.877 44.6 683.85 44.8484C683.958 44.9516 683.973 45.1219 684.064 45.2656C684.247 45.575 684.472 45.8375 684.734 46.0562L684.739 46.0609C685.013 46.275 685.286 46.4828 685.573 46.6656C686.081 46.9781 686.658 47.1641 687.155 47.4781C687.438 47.6609 687.727 47.8937 688.014 48.0891C688.156 48.1859 688.248 48.3625 688.431 48.425V48.3859C688.342 48.2687 688.314 48.0984 688.227 47.9687C688.095 47.8375 687.966 47.7203 687.836 47.5922C687.448 47.0844 687 46.65 686.497 46.2875L686.478 46.275C686.061 45.9906 685.147 45.5922 684.975 45.1125L684.95 45.0844C685.291 45.0359 685.594 44.9641 685.886 44.8672L685.848 44.8781C686.292 44.7609 686.698 44.7859 687.156 44.6719C687.363 44.6187 687.572 44.5547 687.781 44.489V44.3719C687.547 44.1375 687.372 43.8187 687.13 43.6C686.491 43.0375 685.786 42.5094 685.044 42.0344L684.973 41.9922C684.564 41.7312 684.044 41.5625 683.613 41.3406C683.456 41.2625 683.195 41.2234 683.105 41.0922C682.902 40.8031 682.722 40.4719 682.58 40.1219L682.567 40.0875C682.184 39.3437 681.828 38.587 681.498 37.8172C681.273 37.2187 681.05 36.7281 680.798 36.2531L680.834 36.3266C679.606 34.2656 677.895 32.6094 675.853 31.4797L675.786 31.4453C675.303 31.2062 674.742 31.0203 674.153 30.9156L674.114 30.9094C673.788 30.8937 673.463 30.8703 673.138 30.8562C672.909 30.7094 672.713 30.5594 672.528 30.3937L672.533 30.3984C671.791 29.9297 669.87 28.9141 669.323 30.2578C668.972 31.1047 669.845 31.9406 670.147 32.3703C670.388 32.6562 670.606 32.9766 670.795 33.3156L670.811 33.3469C670.903 33.5734 670.928 33.8062 671.02 34.0422C671.247 34.7484 671.477 35.3281 671.738 35.8891L671.697 35.7922C671.852 36.1031 672.013 36.3672 672.192 36.6172L672.18 36.5984C672.284 36.7406 672.464 36.8078 672.506 37.0422C672.372 37.325 672.267 37.6531 672.209 37.9953L672.206 38.0172C672.038 38.5359 671.939 39.1344 671.939 39.7547C671.939 40.725 672.178 41.6391 672.6 42.4422L672.584 42.4109C672.794 42.7344 673.291 43.4531 673.956 43.1781C674.542 42.9437 674.413 42.2016 674.581 41.5484C674.62 41.3922 674.595 41.2891 674.675 41.1828V41.2125C674.858 41.5797 675.042 41.9297 675.209 42.2969C675.681 42.9766 676.242 43.5547 676.883 44.0312L676.903 44.0453C677.216 44.2797 677.464 44.6859 677.855 44.8297V44.7906H677.825C677.736 44.6937 677.638 44.6078 677.53 44.5344L677.523 44.5312C677.281 44.2937 677.056 44.0375 676.853 43.7672L676.841 43.75C676.331 43.0625 675.847 42.2844 675.427 41.4672L675.381 41.3719C675.167 40.9625 674.987 40.5203 674.816 40.1156C674.737 39.9594 674.738 39.725 674.606 39.6469C674.375 39.9062 674.167 40.1953 673.994 40.5062L673.981 40.5312C673.781 41.1141 673.65 41.7875 673.616 42.4859V42.5031C673.563 42.5172 673.589 42.5031 673.562 42.5312C673.145 42.4297 673.002 41.9969 672.845 41.6328C672.633 41.0609 672.509 40.3984 672.509 39.7094C672.509 39.1531 672.589 38.6156 672.739 38.1078L672.73 38.1484C672.822 37.875 673.213 37.0125 673.056 36.75C672.975 36.5016 672.717 36.3594 672.573 36.1578C672.403 35.9172 672.247 35.6437 672.117 35.3547L672.105 35.3234C671.792 34.5937 671.636 33.7844 671.297 33.0547C671.092 32.6734 670.877 32.3453 670.634 32.0391L670.645 32.0531C670.388 31.7547 670.15 31.4219 669.944 31.0687L669.927 31.0375C669.863 30.8953 669.77 30.6594 669.873 30.5031C669.892 30.4125 669.964 30.3422 670.056 30.3281C670.228 30.1875 670.713 30.3703 670.881 30.4484C671.377 30.6359 671.803 30.8562 672.198 31.1156L672.173 31.1C672.356 31.2281 672.555 31.4766 672.789 31.5406H673.063C673.48 31.6328 673.952 31.5687 674.342 31.6828C675.059 31.925 675.68 32.2281 676.253 32.6L676.22 32.5797C677.945 33.6937 679.327 35.2 680.261 36.9797L680.292 37.0437C680.448 37.3437 680.517 37.6203 680.659 37.9328C680.933 38.5766 681.27 39.2281 681.548 39.85C681.812 40.5187 682.125 41.0969 682.497 41.6297L682.478 41.6016C682.673 41.875 683.458 42.0172 683.809 42.1594C684.18 42.2891 684.477 42.4125 684.764 42.5516L684.706 42.5266C685.155 42.8 685.592 43.1125 686.014 43.4125C686.228 43.5609 686.88 43.8875 686.919 44.15L686.916 44.1547ZM668.597 55.5812C668.597 55.6047 668.598 55.6312 668.598 55.6578C668.598 56.5297 668.209 57.3094 667.594 57.8344L667.589 57.8375C666.914 58.3875 666.044 58.7219 665.095 58.7219C665.022 58.7219 664.948 58.7203 664.877 58.7156H664.886C663.731 58.7 662.669 58.325 661.798 57.6984L661.814 57.7094L662.277 56.7797C662.947 57.1547 663.744 57.3875 664.591 57.4203H664.6C664.642 57.4234 664.691 57.425 664.741 57.425C665.259 57.425 665.742 57.2625 666.138 56.9859L666.13 56.9906C666.487 56.7187 666.716 56.2937 666.716 55.8156C666.716 55.8062 666.716 55.7984 666.716 55.789V55.7906C666.716 55.1469 666.267 54.6 665.45 54.1406C664.692 53.725 663.18 52.8578 663.18 52.8578C662.433 52.3953 661.944 51.5812 661.944 50.6531C661.944 50.6203 661.944 50.5875 661.945 50.5547V50.5594C661.944 50.5297 661.944 50.4953 661.944 50.4609C661.944 49.6562 662.298 48.9344 662.859 48.4437L662.862 48.4406C663.459 47.9344 664.239 47.6266 665.091 47.6266C665.145 47.6266 665.198 47.6281 665.252 47.6297H665.244C665.258 47.6297 665.275 47.6297 665.292 47.6297C666.291 47.6297 667.22 47.9281 667.995 48.4422L667.977 48.4312L667.561 49.3609C666.95 49.0859 666.238 48.9203 665.488 48.9125H665.484C665.447 48.9094 665.405 48.9078 665.361 48.9078C664.923 48.9078 664.52 49.0609 664.205 49.3172L664.208 49.3141C663.913 49.5594 663.725 49.9266 663.723 50.3375C663.723 50.9781 664.18 51.5281 665.023 51.9969C665.791 52.4172 667.341 53.3047 667.341 53.3047C668.103 53.7531 668.608 54.5687 668.608 55.5031C668.608 55.5312 668.608 55.5609 668.606 55.5891V55.5844L668.597 55.5812ZM671.834 56.4109C671.408 55.5594 671.159 54.5562 671.159 53.4953C671.159 53.3281 671.166 53.1625 671.178 53L671.177 53.0219C671.177 50.3021 672.003 48.9417 673.656 48.9406C673.697 48.9375 673.745 48.9359 673.795 48.9359C674.538 48.9359 675.189 49.3234 675.559 49.9078L675.564 49.9156C675.987 50.7625 676.236 51.7625 676.236 52.8187C676.236 52.9812 676.23 53.1422 676.219 53.3015L676.22 53.2797C676.22 56.0213 675.394 57.3932 673.741 57.3953C673.698 57.3984 673.65 57.4 673.602 57.4C672.859 57.4 672.206 57.0125 671.836 56.4281L671.831 56.4203L671.834 56.4109ZM678.263 58.8359L676.278 57.8594C676.459 57.7078 676.622 57.5484 676.772 57.3766L676.777 57.3719C677.578 56.2906 678.059 54.9297 678.059 53.4578C678.059 53.2875 678.053 53.1187 678.041 52.9515L678.042 52.9734C678.042 49.4005 676.64 47.613 673.834 47.6109C673.772 47.6078 673.698 47.6062 673.625 47.6062C672.427 47.6062 671.35 48.1328 670.617 48.9687L670.614 48.9734C669.816 50.0547 669.336 51.414 669.336 52.8859C669.336 53.0515 669.342 53.2156 669.355 53.3781L669.353 53.3562C669.339 53.5141 669.331 53.6984 669.331 53.8844C669.331 55.25 669.759 56.5156 670.487 57.5547L670.473 57.5344C671.175 58.2812 672.17 58.7469 673.272 58.7469C673.375 58.7469 673.477 58.7422 673.577 58.7344L673.562 58.7359C673.577 58.7359 673.595 58.7359 673.612 58.7359C674.098 58.7359 674.569 58.6656 675.014 58.5359L674.98 58.5453L677.567 60.0531L678.27 58.8391L678.263 58.8359ZM684.744 58.5719H679.608V47.775H681.336V57.2453H684.744V58.5719ZM660.68 50.6062C660.231 53.8625 659.205 56.8015 657.703 59.4344L657.766 59.3141C657.164 60.4719 656.027 61.2781 654.691 61.4078L654.675 61.4094C654.27 61.3875 653.894 61.2906 653.552 61.1328L653.57 61.1406V60.1765C653.784 60.2094 654.031 60.2281 654.283 60.2281C654.297 60.2281 654.311 60.2281 654.327 60.2281C654.352 60.2297 654.378 60.2297 654.406 60.2297C654.858 60.2297 655.272 60.0656 655.591 59.7922L655.587 59.7937C655.931 59.5109 656.152 59.0891 656.164 58.614C656.081 57.9297 655.923 57.3047 655.697 56.7156L655.716 56.7687L653.736 50.6062H655.513L656.933 55.214C657.186 55.864 657.333 56.6172 657.333 57.4031C657.333 57.4047 657.333 57.4062 657.333 57.4062C658.086 55.4344 658.658 53.1344 658.948 50.7484L658.962 50.6047L660.68 50.6062ZM652.836 58.5719H651.027C650.976 55.6958 650.8 52.8255 650.5 49.9609H650.484L647.731 58.5719H646.355L643.62 49.9609H643.602C643.388 52.8265 643.261 55.6969 643.22 58.5719H641.57C641.678 54.7333 641.944 51.1338 642.37 47.7734H644.616L647.222 55.7094H647.237L649.867 47.7734H652.005C652.478 51.7078 652.756 55.3073 652.841 58.5719H652.836ZM673.602 32.8109C673.598 32.8109 673.594 32.8109 673.589 32.8109C673.403 32.8109 673.223 32.8344 673.052 32.8781L673.067 32.875V32.9H673.094C673.228 33.1 673.366 33.2734 673.514 33.4359L673.511 33.4328C673.616 33.6422 673.706 33.85 673.811 34.0578L673.838 34.0281C674.008 33.8937 674.116 33.6875 674.116 33.4562C674.116 33.4281 674.114 33.4016 674.111 33.3734V33.3766C674.033 33.2844 674.022 33.1937 673.955 33.1031C673.877 32.9719 673.709 32.9078 673.603 32.8047L673.602 32.8109Z" fill="#778472"/>
</g>
<defs>
<clipPath id="clip0_72_137">
<rect width="50" height="50" fill="white" transform="translate(12 20)"/>
</clipPath>
<clipPath id="clip1_72_137">
<rect width="50" height="50" fill="white" transform="translate(169 20)"/>
</clipPath>
<clipPath id="clip2_72_137">
<rect width="50" height="50" fill="white" transform="translate(326 20)"/>
</clipPath>
<clipPath id="clip3_72_137">
<rect width="50" height="50" fill="white" transform="translate(326 20)"/>
</clipPath>
<clipPath id="clip4_72_137">
<rect width="50" height="50" fill="white" transform="translate(483 20)"/>
</clipPath>
<clipPath id="clip5_72_137">
<rect width="50" height="47" fill="white" transform="translate(640 21.5)"/>
</clipPath>
</defs>
</svg>
